<svg xmlns="http://www.w3.org/2000/svg" xmlns:xlink="http://www.w3.org/1999/xlink" width="68" height="68" viewBox="0 0 68 68" fill="none">
<rect x="0" y="0" width="0" height="0" fill="rgba(249, 249, 249, 1)" />
<g  clip-path="url(#clip-path-dEg2Z_9XE-sronTKjpfYk)">
<g filter="url(#filter_L5uBz-IGPBp1LPFpigXY4)">
<rect  x="2" y="2" width="64" height="63.99998474121094" rx="14"    fill="url(#linear_fill_H-1cgnMeLV9RQwdWpMuj4_0)" >
</rect>
<path   fill="rgba(196, 69, 69, 1)"  d="M16 1L52 1C60.2843 1 67 7.71573 67 16L67 52C67 60.2843 60.2843 67 52 67L16 67C7.71573 67 1 60.2843 1 52L1 16C1 7.71573 7.71573 1 16 1ZM16 3C8.8203 3 3 8.8203 3 16L3 52C3 59.1797 8.8203 65 16 65L52 65C59.1797 65 65 59.1797 65 52L65 16C65 8.8203 59.1797 3 52 3L16 3Z">
</path>
<g filter="url(#filter_Ry4cTqbDmiFquEQYYD_Ih)">
<path d="M25.8417 52.9508L11 52.9508L11 52.1261C14.3482 52.2672 15.9498 50.9681 15.8049 48.2289L15.8049 20.3132C16.0947 17.9875 14.4931 16.8928 11 17.029L11 16L25.8417 16C37.4853 16.4136 43.5995 22.6414 44.1843 34.6834C43.5995 46.453 37.4853 52.5421 25.8417 52.9508ZM25.8417 17.4377L22.7911 17.4377C20.1674 17.3015 18.928 18.3281 19.0729 20.5176L19.0729 48.2289C18.928 50.6908 20.2398 51.8537 23.0084 51.7174L25.8417 51.7174C35.0117 51.0363 39.8891 45.3583 40.4738 34.6834C39.8891 23.7361 35.0117 17.9875 25.8417 17.4377ZM55.9133 43.5069L57 43.7113L55.9133 52.9508L26.8741 52.9508L26.8741 52.1261C30.3672 52.4035 31.9688 51.2406 31.679 48.6376L31.679 20.5176C31.9688 17.9194 30.3672 16.7566 26.8741 17.029L26.8741 16L54.8188 16L55.9133 25.0352L54.6014 25.2395C53.2921 19.6296 51.0359 17.029 47.8326 17.4377L38.2305 17.4377C35.6068 17.3015 34.3674 18.3281 34.5123 20.5176L34.5123 33.0413L43.0277 33.0413C46.8157 33.45 48.7098 31.3968 48.7098 26.8816L49.7965 26.8816L49.7965 40.8431L48.7098 40.8431C48.7098 35.9144 46.8157 33.7249 43.0277 34.2747L34.5123 34.2747L34.5123 48.6376C34.3674 50.827 35.6792 51.8537 38.4479 51.7174L49.1444 51.7174C52.4926 52.4035 54.7489 49.6666 55.9133 43.5069Z"   fill="#C44545" >
</path>
</g>
</g>
</g>
<defs>
<clipPath id="clip-path-dEg2Z_9XE-sronTKjpfYk">
<path d="M0 68L68 68L68 0L0 0L0 68Z" fill="white"/>
</clipPath>
<radialGradient id="linear_fill_H-1cgnMeLV9RQwdWpMuj4_0" cx="0" cy="0" r="1" gradientTransform="translate(66 33.99999237060547) rotate(-90) scale(64.0000152587927, 64)" gradientUnits="userSpaceOnUse">
<stop offset="0" stop-color="#FFFFFF" stop-opacity="0.34" />
</radialGradient>
<filter id="filter_Ry4cTqbDmiFquEQYYD_Ih" x="7" y="14" width="54" height="44.95082092285156" filterUnits="userSpaceOnUse" color-interpolation-filters="sRGB">
<feFlood flood-opacity="0" result="feFloodId_Ry4cTqbDmiFquEQYYD_Ih"/>
<feColorMatrix in="SourceAlpha" type="matrix" values="0 0 0 0 0 0 0 0 0 0 0 0 0 0 0 0 0 0 127 0" result="hardAlpha_Ry4cTqbDmiFquEQYYD_Ih"/>
<feOffset dx="0" dy="2"/>
<feGaussianBlur stdDeviation="2"/>
<feComposite in2="hardAlpha_Ry4cTqbDmiFquEQYYD_Ih" operator="out"/>
<feColorMatrix type="matrix" values="0 0 0 0 0 0 0 0 0 0 0 0 0 0 0 0 0 0 0.25 0"/>
<feBlend mode="normal" in2="feFloodId_Ry4cTqbDmiFquEQYYD_Ih" result="dropShadow_1_Ry4cTqbDmiFquEQYYD_Ih"/>
<feBlend mode="normal" in="SourceGraphic" in2="dropShadow_1_Ry4cTqbDmiFquEQYYD_Ih" result="shape_Ry4cTqbDmiFquEQYYD_Ih"/>
</filter>
<filter id="filter_L5uBz-IGPBp1LPFpigXY4" x="-3" y="-1" width="74" height="73.99998474121094" filterUnits="userSpaceOnUse" color-interpolation-filters="sRGB">
<feFlood flood-opacity="0" result="feFloodId_L5uBz-IGPBp1LPFpigXY4"/>
<feColorMatrix in="SourceAlpha" type="matrix" values="0 0 0 0 0 0 0 0 0 0 0 0 0 0 0 0 0 0 127 0" result="hardAlpha_L5uBz-IGPBp1LPFpigXY4"/>
<feOffset dx="0" dy="2"/>
<feGaussianBlur stdDeviation="2"/>
<feComposite in2="hardAlpha_L5uBz-IGPBp1LPFpigXY4" operator="out"/>
<feColorMatrix type="matrix" values="0 0 0 0 0 0 0 0 0 0 0 0 0 0 0 0 0 0 0.25 0"/>
<feBlend mode="normal" in2="feFloodId_L5uBz-IGPBp1LPFpigXY4" result="dropShadow_1_L5uBz-IGPBp1LPFpigXY4"/>
<feBlend mode="normal" in="SourceGraphic" in2="dropShadow_1_L5uBz-IGPBp1LPFpigXY4" result="shape_L5uBz-IGPBp1LPFpigXY4"/>
</filter>
</defs>
</svg>
